<?xml version="1.0" encoding="UTF-8" standalone="no"?>
<svg
   xmlns:dc="http://purl.org/dc/elements/1.1/"
   xmlns:cc="http://creativecommons.org/ns#"
   xmlns:rdf="http://www.w3.org/1999/02/22-rdf-syntax-ns#"
   xmlns:svg="http://www.w3.org/2000/svg"
   xmlns="http://www.w3.org/2000/svg"
   xmlns:sodipodi="http://sodipodi.sourceforge.net/DTD/sodipodi-0.dtd"
   xmlns:inkscape="http://www.inkscape.org/namespaces/inkscape"
   sodipodi:docname="lava-bg.svg"
   inkscape:version="0.48.4 r9939"
   version="1.1"
   id="svg3031"
   height="565"
   width="986">
  <metadata
     id="metadata3056">
    <rdf:RDF>
      <cc:Work
         rdf:about="">
        <dc:format>image/svg+xml</dc:format>
        <dc:type
           rdf:resource="http://purl.org/dc/dcmitype/StillImage" />
      </cc:Work>
    </rdf:RDF>
  </metadata>
  <defs
     id="defs3054" />
  <sodipodi:namedview
     pagecolor="#ffffff"
     bordercolor="#666666"
     borderopacity="1"
     objecttolerance="10"
     gridtolerance="10"
     guidetolerance="10"
     inkscape:pageopacity="0"
     inkscape:pageshadow="2"
     inkscape:window-width="1855"
     inkscape:window-height="1056"
     id="namedview3052"
     showgrid="false"
     inkscape:zoom="1.6088496"
     inkscape:cx="493"
     inkscape:cy="481.39989"
     inkscape:window-x="65"
     inkscape:window-y="24"
     inkscape:window-maximized="1"
     inkscape:current-layer="svg3031" />
  <g
     id="g3033">
    <title
       id="title3035">background</title>
    <rect
       fill="none"
       id="canvas_background"
       height="402"
       width="582"
       y="-1"
       x="-1" />
  </g>
  <g
     id="g3038">
    <title
       id="title3040">Layer 1</title>
    <g
       id="svg_1"
       fill-rule="evenodd"
       fill="none">
      <path
         id="svg_2"
         d="m0.004,565l985.996,0l0,-418.754l-985.995,0l0,418.754l-0.001,0zm0.001,0z"
         fill="#9e9e9e" />
      <path
         id="svg_3"
         d="m847.52,450.56c-6.957,0 -12.652,6.224 -12.652,13.83l0,84.945c0,7.606 5.695,13.83 12.65,13.83c6.96,0 12.652,-6.224 12.652,-13.83l0,-84.945c0,-7.606 -5.693,-13.83 -12.65,-13.83m-50.6,24.39c-6.955,0 -12.647,6.224 -12.647,13.83l0,29.405c0,7.605 5.692,13.828 12.646,13.828c6.956,0 12.65,-6.223 12.65,-13.828l0,-29.405c0,-7.606 -5.694,-13.83 -12.65,-13.83m-126.494,-12.87c-6.958,0 -12.65,6.226 -12.65,13.832l0,26.822c0,7.606 5.692,13.83 12.65,13.83c6.96,0 12.65,-6.224 12.65,-13.83l0,-26.822c0,-7.606 -5.69,-13.83 -12.65,-13.83m-126.495,12.868c-6.955,0 -12.647,6.224 -12.647,13.83l0,62.39c0,7.604 5.692,13.83 12.646,13.83c6.956,0 12.65,-6.226 12.65,-13.83l0,-62.39c0,-7.606 -5.694,-13.83 -12.65,-13.83m-126.494,-6.083c-6.958,0 -12.65,6.224 -12.65,13.83l0,6.917c0,7.606 5.692,13.828 12.65,13.828s12.65,-6.222 12.65,-13.828l0,-6.918c0,-7.605 -5.692,-13.83 -12.65,-13.83m-50.598,-27.586c-6.958,0 -12.65,6.225 -12.65,13.83l0,34.616c0,7.605 5.692,13.83 12.65,13.83s12.65,-6.225 12.65,-13.83l0,-34.616c0,-7.605 -5.692,-13.83 -12.65,-13.83m0,-62.764c-6.958,0 -12.65,6.224 -12.65,13.83l0,2.104c0,7.608 5.692,13.83 12.65,13.83s12.65,-6.222 12.65,-13.83l0,-2.103c0,-7.607 -5.692,-13.83 -12.65,-13.83m-50.598,15.127c-6.957,0 -12.648,6.225 -12.648,13.83l0,29.526c0,7.607 5.69,13.83 12.647,13.83c6.956,0 12.65,-6.223 12.65,-13.83l0,-29.525c0,-7.606 -5.694,-13.83 -12.65,-13.83m-126.496,57.183c-6.958,0 -12.65,6.225 -12.65,13.83l0,63.765c0,7.608 5.692,13.832 12.65,13.832s12.65,-6.224 12.65,-13.832l0,-63.766c0,-7.604 -5.692,-13.83 -12.65,-13.83m-50.598,21.59c-6.958,0 -12.65,6.224 -12.65,13.83l0,33.53c0,7.61 5.692,13.832 12.65,13.832s12.65,-6.223 12.65,-13.833l0,-33.532c0,-7.605 -5.692,-13.83 -12.65,-13.83m-75.894,-31.134c-6.96,0 -12.652,6.225 -12.652,13.83l0,38.162c0,7.606 5.693,13.83 12.65,13.83c6.957,0 12.648,-6.224 12.648,-13.83l0,-38.16c0,-7.607 -5.69,-13.832 -12.647,-13.832"
         fill="#016363" />
      <path
         id="svg_4"
         d="m978.662,128.983c-2.907,-6.125 -3.347,-18.7 -11.045,-20.757c-1.873,-0.5 -3.103,-1.57 -3.816,-2.873c-1.03,-0.2 -2.064,-0.656 -3.03,-1.454c-7.243,-5.976 -8.07,-16.886 -8.078,-25.585c-0.007,-7.872 0.635,-15.798 1,-23.663c0.192,-4.186 0.428,-8.38 0.228,-12.57c-0.1,-2.096 -0.074,-7.404 -2.077,-8.88c-1.712,-1.264 -5.888,0.306 -7.422,1.13c-3.05,1.64 -3.155,4.998 -3.35,8.19c-0.55,8.97 0.09,18.397 1.084,27.318c1.083,9.735 0.612,21.073 -9.202,26.307c-8.27,4.41 -18.8,1.44 -24.76,-5.418c-3.816,-4.395 -4.898,-9.69 -5.497,-15.318c-0.41,-3.85 -0.41,-10.928 -5.042,-12.587c-9.198,-3.294 -7.33,16.184 -7.185,20.34c0.392,11.24 0.352,23.574 -3.57,34.217c-1.43,3.884 -5.28,4.972 -8.402,4.108c-0.87,0.448 -1.914,0.697 -3.156,0.634c-9.984,-0.506 -17.803,-5.51 -19.642,-15.763c-1.41,-7.862 0.924,-16.403 -1.26,-24.066c-0.87,-3.05 -3.21,-6.576 -6.843,-5.246c-4.845,1.772 -5.912,8.853 -8.174,12.816c-6.64,11.64 -17.704,13.38 -29.34,8.046c-3.222,-1.478 -3.87,-4.347 -2.976,-6.888c-3.916,-5.36 -4.487,-11.55 -4.335,-18.133c0.18,-7.757 0.12,-15.757 -0.94,-23.45c-0.307,-2.21 -0.716,-6.835 -2.535,-8.484c-1.378,-1.25 -4.002,-0.996 -5.738,-0.777c-2.386,0.3 -4.828,0.866 -5.657,3.247c-0.856,2.457 0.15,6.132 0.593,8.55c1.136,6.226 2.07,12.45 2.99,18.708c0.92,6.253 1.828,13.082 -0.912,19.02c-2.995,6.493 -9.576,8.14 -15.33,11.298c-6.53,3.584 -11.704,9.12 -19.185,10.89c-0.902,0.212 -1.742,0.24 -2.52,0.13c-1.035,1.1 -2.54,1.813 -4.53,1.766c-9.238,-0.215 -16.766,-4.397 -20.067,-13.278c-2.704,-7.273 -2.153,-15.248 -3.165,-22.827c-0.434,-3.254 -1.165,-7.132 -3.396,-9.704c-3.294,-3.795 -8.492,-2.94 -12.7,-4.766c-9.722,-4.22 -10.532,-19.886 -11.13,-28.882c-0.055,-0.837 0.032,-1.585 0.223,-2.253c-0.76,-0.814 -1.597,-1.454 -2.54,-1.71c-2.65,-0.716 -7.216,1.107 -8.398,3.64c-1.415,3.03 -0.54,7.435 -0.21,10.607c0.432,4.135 1.14,8.3 0.943,12.47c-0.238,5.078 -1.815,9.996 -4.37,14.362c-0.338,1.435 -1.108,2.737 -2.348,3.492c-2.78,3.633 -6.28,6.725 -10.28,8.958c-3.974,2.22 -8.03,2.773 -12.463,3.397c-2.47,0.347 -6.293,0.348 -7.206,3.086c-1.16,3.48 -4.253,4.75 -7.11,4.404c-7.412,9.09 -14.806,21.032 -27.895,16.24c-14.56,-5.333 -16.605,-24.287 -17.618,-37.466c-0.453,-5.887 0.298,-13.78 -2.54,-19.145c-0.912,-1.725 -2.527,-2.497 -4.276,-2.578c-0.126,0.468 -0.304,0.944 -0.548,1.423c-0.934,1.834 -1.728,3.728 -2.485,5.637c3.216,1.102 4.888,4.55 4.135,7.82c-1.13,4.91 -2.35,9.85 -4.984,14.208c-0.73,1.208 -1.66,2.015 -2.675,2.502c-0.136,5.272 -1.562,10.236 -6.28,14.455c-11.406,10.195 -26.474,-0.093 -30.513,-12.166c-1.152,-3.444 0.562,-6.024 3.08,-7.196c-1.583,-6.828 -2.422,-13.844 -3.93,-20.687c-1.22,-5.528 -2.62,-10.912 -3.787,-16.4c-1.827,0.175 -3.65,0.377 -5.465,0.64c-1.718,5.645 -2.92,11.433 -4.328,17.165c1.81,-0.033 3.663,0.636 4.89,1.862c2.606,2.607 2.257,6.477 0,9.132c-4.31,5.07 -7.84,10.742 -12.334,15.667c-0.878,0.96 -1.84,1.55 -2.82,1.832c-0.944,1.738 -2.746,2.933 -5.413,2.724c-20.41,-1.602 -22.092,-25.923 -22.094,-41.817c-0.003,-8.728 0.622,-17.434 1.004,-26.148c0.15,-3.398 0.293,-6.81 0.172,-10.21c-0.027,-0.766 -0.072,-1.528 -0.127,-2.292l-0.035,-0.512s-0.002,-0.003 -0.006,-0.023c-0.107,-0.587 -0.476,-1.76 -0.694,-2.683c-0.6,0.076 -1.222,-0.013 -1.82,0.067c-1.16,0.152 -2.398,0.453 -3.474,0.91c-2.168,0.92 -3.665,2.547 -4.598,4.692c-2.28,5.24 -1.703,11.733 -1.352,17.267c0.65,10.226 2.236,21.273 0.124,31.42c-2.52,12.104 -14.765,19.387 -26.17,13.19c-11.588,-6.298 -11.597,-17.95 -11.472,-29.445c0.034,-3.148 0.878,-8.84 -2.953,-9.83c-3.155,-0.815 -8.714,0.203 -10.31,3.324c-1.054,2.055 -0.828,4.87 -1.607,7.07c-0.943,2.662 -2.598,4.843 -4.94,6.432c-2.65,1.8 -5.603,2.51 -8.742,2.902c-1.687,0.21 -4.55,-0.067 -5.66,1.484c-0.76,1.056 -1.675,1.785 -2.663,2.238c-1.303,6.427 -0.915,12.94 -1.414,19.544c-0.575,7.607 -3.15,13.368 -6.923,19.883c-2.72,4.696 -8.412,3.556 -10.882,0.195c-6.378,-0.293 -13.13,-5.465 -16.352,-11.62c-2.888,-5.516 -3.876,-11.763 -4.32,-17.905c-0.264,-3.635 1.27,-9.475 -2.794,-11.1c-6.672,-2.668 -14.086,5.148 -19.748,7.667c-9.79,4.353 -20.207,0.86 -26.184,-8.016c-2.46,-3.652 -3.546,-7.84 -4.984,-11.9c-1.6,0.356 -3.08,1.034 -4.594,1.647c-0.547,0.22 -1.14,0.296 -1.743,0.275c-0.046,11.042 1.513,22.122 0.115,33.198c-0.845,6.7 -2.424,14.11 -7.495,18.99c-5.396,5.194 -13.034,5.24 -19.643,2.538c-0.468,-0.19 -0.914,-0.42 -1.338,-0.68c-2.018,0.103 -4.01,-0.83 -5.19,-3.287c-1.766,-3.673 -4.624,-6.612 -6.45,-10.238c-1.627,-3.233 -1.968,-6.59 -2.95,-10.012c-1.105,-3.846 -3.62,-3.298 -7.02,-4.62c-3.544,-1.38 -6.4,-3.816 -8.55,-6.934c-7.113,-10.3 -3.773,-23.738 -9.193,-34.544c-2.156,-4.298 -7.323,-5.166 -9.676,-0.25c-2.854,5.96 0.046,15.195 0.9,21.376c1.05,7.603 1.554,15.337 0.744,22.99c-0.66,6.25 -1.797,13.28 -6.89,17.55c-9.26,7.763 -25.442,-1.076 -31.904,-9.01c-1.927,-2.368 -1.892,-5.118 -0.82,-7.315c-0.56,-4.475 -1.047,-8.85 -1.81,-13.294c-0.96,-5.6 -1.912,-12.42 -4.926,-16.968c-2.5,2.363 -4.972,6.006 -6.456,9.555c-4.77,11.415 -3.197,24.41 -3.594,36.46c-0.266,8.075 -0.693,19.757 -9.174,23.812c-9.993,4.778 -19.118,-5.642 -22.073,-14.087c-3.734,-10.67 -5.92,-22.39 -6.98,-33.617c-0.585,-6.184 -0.794,-12.426 -0.714,-18.637c0.025,-1.922 0.135,-3.85 0.08,-5.774c-0.01,-0.334 -0.188,-1.402 -0.21,-1.968c-0.777,0.22 -1.814,0.454 -1.757,0.44c-0.616,0.152 -1.336,0.294 -1.905,0.584c-1.2,0.614 -1.89,1.322 -2.632,2.396c-1.84,2.668 -2.603,6.03 -4.068,8.9c-4.615,9.03 -14.45,14.16 -23.985,8.984c-4.883,-2.65 -9.34,-7.5 -11.783,-12.46c-2.468,-5.014 -2.03,-10.267 -2.712,-15.63c-1.296,-10.203 -6.524,-0.005 -7.498,4.564c-2.732,12.812 -2.046,29.78 -18.356,33.038c-8.557,1.71 -14.947,-1.586 -20.81,-7.64c-2.317,-2.39 -4.572,-5.717 -7.436,-7.47c-1.676,-1.024 -1.976,-1.448 -2.46,0.38c-2.155,8.122 -1.577,17.23 -2.322,25.6c-0.622,6.99 -1.072,13.996 -1.48,21.002c-0.295,5.077 -0.25,10.38 -1.627,15.318c-2.71,9.72 -10.99,14.14 -20.704,11.545c-3.58,-0.958 -6.47,-2.716 -8.884,-4.97l0,315.1c0,7.602 5.693,13.826 12.65,13.826c6.958,0 12.65,-6.224 12.65,-13.827l0,-131.461c0,-7.607 5.693,-13.833 12.648,-13.833c6.958,0 12.65,6.226 12.65,13.832l0,65.8c0,7.605 5.693,13.83 12.65,13.83c6.956,0 12.65,-6.225 12.65,-13.83l0,-120.5c0,-7.606 5.69,-13.83 12.65,-13.83c6.956,0 12.65,6.224 12.65,13.83l0,86.63c0,7.608 5.69,13.83 12.65,13.83c6.955,0 12.648,6.226 12.648,13.832l0,46.92c0,7.606 5.69,13.828 12.65,13.828c6.957,0 12.65,-6.222 12.65,-13.83l0,-4.587c0,-7.607 5.69,-13.83 12.647,-13.83c6.958,0 12.65,-6.224 12.65,-13.83l0,-19.55c0,-7.607 5.693,-13.832 12.65,-13.832c6.958,0 12.65,6.227 12.65,13.834l0,19.55c0,7.606 5.693,13.83 12.65,13.83c6.956,0 12.65,-6.224 12.65,-13.83l0,-68.554c0,-7.606 5.69,-13.828 12.647,-13.828c6.958,0 12.65,6.222 12.65,13.827l0,92.086c0,7.606 -5.692,13.83 -12.65,13.83c-6.956,0 -12.647,6.223 -12.647,13.828l0,57.207c0,7.606 5.69,13.83 12.647,13.83c6.958,0 12.65,-6.224 12.65,-13.83l0,-39.316c0,-7.607 5.692,-13.827 12.65,-13.827s12.65,-6.226 12.65,-13.832l0,-115.69c0,-7.605 5.692,-13.83 12.65,-13.83s12.65,6.225 12.65,13.83l0,35.4c0,7.605 5.692,13.83 12.648,13.83c6.958,0 12.65,-6.225 12.65,-13.83l0,-55.92c0,-7.606 5.693,-13.83 12.65,-13.83c6.956,0 12.65,6.224 12.65,13.83l0,55.92c0,7.605 5.69,13.83 12.65,13.83c6.956,0 12.65,-6.225 12.65,-13.83l0,-78.925c0,-7.608 5.69,-13.832 12.647,-13.832c6.958,0 12.65,6.224 12.65,13.83l0,44.846c0,7.606 5.692,13.83 12.65,13.83s12.65,-6.224 12.65,-13.83l0,-27.35c0,-7.61 5.69,-13.834 12.648,-13.834c6.958,0 12.65,6.225 12.65,13.834l0,68.255c0,7.604 -5.692,13.827 -12.65,13.827c-6.957,0 -12.65,-4.266 -12.65,-9.483c0,-5.218 -5.69,-9.486 -12.648,-9.486c-6.958,0 -12.65,6.223 -12.65,13.828l0,14.89c0,7.605 5.692,13.828 12.65,13.828s12.65,6.226 12.65,13.83l0,4.34c0,7.607 5.69,13.83 12.648,13.83c6.958,0 12.65,-6.223 12.65,-13.83l0,-8.027c0,-7.606 5.693,-13.832 12.65,-13.832c6.958,0 12.65,-6.222 12.65,-13.83l0,-21.3c0,-7.607 5.694,-13.83 12.65,-13.83c6.954,0 12.648,6.223 12.648,13.83l0,51.172c0,7.607 -5.693,13.83 -12.647,13.83c-6.956,0 -12.65,6.226 -12.65,13.83l0,77.232c0,7.604 5.694,13.826 12.65,13.826s12.65,-6.223 12.65,-13.828l0,-53.48c0,-7.605 5.693,-13.827 12.65,-13.827c6.956,0 12.65,-6.224 12.65,-13.83l0,-110.019c0,-7.606 5.693,-13.828 12.645,-13.828c6.96,0 12.65,6.222 12.65,13.827l0,120.546c0,7.607 5.695,13.83 12.65,13.83c6.96,0 12.654,6.224 12.654,13.83l0,28.745c0,7.606 5.692,13.83 12.648,13.83c6.958,0 12.65,-6.224 12.65,-13.83l0,-28.743c0,-7.607 5.69,-13.83 12.652,-13.83c6.956,0 12.65,-6.224 12.65,-13.83l0,-58.13c0,-7.607 5.69,-13.83 12.646,-13.83c6.958,0 12.65,6.223 12.65,13.83l0,15.847c0,7.606 5.693,13.83 12.65,13.83c6.96,0 12.65,-6.224 12.65,-13.83l0,-92.69c0,-7.606 5.693,-13.832 12.65,-13.832c6.955,0 12.646,6.226 12.646,13.833l0,44.11c0,7.605 5.695,13.83 12.653,13.83c6.955,0 12.65,6.224 12.65,13.83l0,6.418c0,7.607 -5.695,13.83 -12.65,13.83c-6.96,0 -12.654,6.224 -12.654,13.83l0,28.984c0,7.605 5.695,13.83 12.653,13.83c6.955,0 12.65,-6.225 12.65,-13.83l0,-25.25c0,-7.606 5.69,-13.826 12.65,-13.826c6.953,0 12.646,6.22 12.646,13.828l0,33.033c0,7.606 5.693,13.83 12.65,13.83c6.957,0 12.65,-6.224 12.65,-13.83l0,-87.935c0,-7.603 5.693,-13.83 12.648,-13.83c6.956,0 12.65,6.227 12.65,13.83l0,59.15c0,7.604 5.692,13.828 12.65,13.828c6.956,0 12.65,-6.224 12.65,-13.83l0,-125.637c0,-7.607 5.694,-13.832 12.65,-13.832s12.65,6.225 12.65,13.832l0,94.495c0,7.605 5.69,13.83 12.65,13.83c6.957,0 12.65,-6.225 12.65,-13.83l0,-40.85c0,-7.604 5.69,-13.83 12.648,-13.83c6.958,0 12.65,6.226 12.65,13.83l0,73.39c0,7.606 -5.692,13.828 -12.65,13.828s-12.65,6.225 -12.65,13.83l0,41.013c0,7.607 5.692,13.83 12.65,13.83s12.65,-6.223 12.65,-13.83l0,-32.65c0,-7.606 5.692,-13.83 12.648,-13.83c6.96,0 12.65,-6.225 12.65,-13.832l0,-148.165c0,-7.605 5.693,-13.83 12.65,-13.83c6.958,0 12.65,6.225 12.65,13.83l0,49.773c0,7.605 5.693,13.83 12.65,13.83c5.56,0 10.3,-3.98 11.985,-9.456l0,-191.82c-3.163,-3.18 -5.705,-7.22 -7.338,-10.662l-0.015,0l-0.001,0.001zm-826.866,190.352c0,7.606 -5.693,13.83 -12.65,13.83c-6.96,0 -12.65,-6.224 -12.65,-13.83l0,-52.61c0,-7.606 5.69,-13.83 12.65,-13.83c6.957,0 12.65,6.224 12.65,13.83l0,52.61zm455.384,97.785c0,7.608 -5.694,13.83 -12.652,13.83c-6.956,0 -12.647,-6.222 -12.647,-13.83l0,-65.7c0,-7.607 5.693,-13.83 12.65,-13.83c6.957,0 12.65,6.223 12.65,13.83l0,65.703l0,-0.003l-0.001,0z"
         fill="#009688" />
      <path
         id="svg_5"
         d="m974.017,367.755c-6.958,0 -12.65,6.224 -12.65,13.83l0,66.667c0,7.605 5.692,13.828 12.65,13.828c5.56,0 10.3,-3.974 11.984,-9.447l0,-79.966c-1.683,-2.846 -6.422,-4.912 -11.982,-4.912"
         fill="#016363" />
      <path
         id="svg_6"
         d="m974.016,339.047c-6.958,0 -12.65,6.224 -12.65,13.83l0,25.585c0,7.607 5.692,13.83 12.65,13.83c5.56,0 10.298,-3.975 11.984,-9.45l0,-34.345c-1.686,-5.474 -6.425,-9.45 -11.984,-9.45m-202.393,17.867c-6.958,0 -12.65,6.222 -12.65,13.827l0,18.124c0,7.605 5.692,13.83 12.65,13.83s12.65,-6.225 12.65,-13.83l0,-18.125c0,-7.604 -5.692,-13.826 -12.65,-13.826m-202.393,-17.867c-6.957,0 -12.652,6.224 -12.652,13.83l0,13.095c0,7.607 5.695,13.833 12.65,13.833c6.96,0 12.652,-6.226 12.652,-13.833l0,-13.096c0,-7.605 -5.693,-13.83 -12.65,-13.83m-202.392,-62.203c-6.958,0 -12.65,5.537 -12.65,12.303c0,6.768 5.692,12.307 12.65,12.307s12.65,-5.54 12.65,-12.307c0,-6.766 -5.692,-12.303 -12.65,-12.303m-151.796,65.924c-6.956,0 -12.65,6.224 -12.65,13.83l0,30.13c0,7.606 5.695,13.832 12.65,13.832c6.958,0 12.65,-6.228 12.65,-13.833l0,-30.132c0,-7.605 -5.692,-13.83 -12.65,-13.83m-215.042,-342.397l0,109.013l0,-109.014l0,0.001zm460.209,372.924l0.016,-0.14c0.025,-0.227 0.07,-2.567 0.14,-2.61c-5.79,3.552 -2.596,3.262 -0.156,2.75"
         fill="#f44336" />
      <path
         id="svg_7"
         d="m977.826,101.915c1.417,1.232 2.992,2.256 4.74,3.035c-1.347,-1.36 -2.955,-2.413 -4.74,-3.035zm-1.3,17.94c-0.67,-1.25 -0.918,-2.58 -0.797,-3.85c-6.11,-3.162 -10.65,-11.58 -14.115,-18.21c-5.672,-10.86 -8.125,-19.94 -9.486,-31.976c-0.636,-5.62 -1.053,-11.26 -1.467,-16.897c-0.193,-2.622 -0.38,-5.245 -0.615,-7.864c-0.104,-1.165 -0.218,-2.328 -0.344,-3.49c-0.108,-0.978 -0.226,-1.78 -0.22,-1.74c-0.83,-4.46 -2.64,-7.473 -5.986,-3.05c-3.64,4.806 -1.917,13.186 -1.417,18.68c1.44,15.8 3.336,33.236 -9.287,45.26c-0.918,0.874 -1.91,1.4 -2.907,1.65c-1.78,2.196 -4.786,3.29 -7.912,1.355c-7.033,-4.353 -14.54,-10.237 -17.032,-18.49c-1.222,-4.053 -0.28,-16.028 -5.978,-17.028c-1.657,-0.29 -3.427,1.107 -4.53,2.15c-1.99,1.885 -2.25,2.54 -2.682,4.385c-0.768,3.285 -0.768,7.42 -0.736,11.395c0.11,14.403 3.19,46.778 -20.874,40.686c-1.683,-0.427 -2.86,-1.31 -3.602,-2.417c-10.015,-2.54 -15.08,-10.094 -15.574,-21.015c-0.227,-5.04 0.403,-10.07 0.64,-15.1c0.068,-1.48 0.173,-3.185 0.158,-4.87c-2.06,0.81 -4.128,1.692 -6.102,2.713c0.268,1.047 0.288,2.166 0,3.257c-1.37,5.186 -3.917,9.956 -7.646,13.825c-2.428,2.52 -6.695,2.438 -9.133,0c-0.043,-0.044 -0.08,-0.093 -0.124,-0.138c-2.168,2.197 -4.64,3.934 -7.56,4.79c-4.532,1.332 -7.58,-2.086 -7.93,-5.727c-0.675,-0.43 -1.31,-0.99 -1.857,-1.73c-5.365,-7.245 -5.78,-19.264 -7.37,-27.79c-1.624,-8.69 -3.015,-18.697 -6.962,-26.573c-0.302,0.208 -0.605,0.42 -0.91,0.627c-0.412,0.283 -0.824,0.565 -1.23,0.855c0.02,-0.017 -0.556,0.42 -0.803,0.597c-0.24,0.203 -0.668,0.563 -0.73,0.618c-0.442,0.4 -0.85,0.82 -1.27,1.243c-0.09,0.09 -0.165,0.173 -0.22,0.236c-0.284,0.42 -0.538,0.85 -0.778,1.3c-0.227,0.424 -0.5,0.8 -0.805,1.138c1.27,6.077 3.146,11.9 3.274,18.2c0.134,6.7 -0.34,13.794 -2.648,20.14c-3.18,8.75 -9.258,14.3 -16.883,17.176c1.27,2.69 0.807,5.94 -2.717,7.517c-11.624,5.202 -22.66,3.564 -32.44,-1.804c-2.466,-0.9 -4.538,-2.3 -6.276,-4.06c-3.37,-2.514 -6.553,-5.43 -9.514,-8.61c-3.248,-3.49 -1.628,-7.983 1.413,-10.033c-0.202,-1.14 -0.374,-2.27 -0.52,-3.38c-0.564,-4.255 -0.5,-10.112 -3.872,-13.243c-1.746,-1.623 -4.284,-2.77 -6.9,-3.753c-1.865,0.537 -3.925,0.07 -5.585,-2.015c0,-0.003 -0.003,-0.005 -0.006,-0.007c-0.406,-0.16 -0.804,-0.318 -1.18,-0.48c-3.442,-1.49 -3.98,-4.576 -2.842,-7.21c-2.53,-7.615 -2.388,-16.187 -6.024,-23.43c-0.144,-0.284 -0.222,-0.47 -0.272,-0.59c-0.14,0.05 -0.3,0.12 -0.482,0.24c-1.545,1.038 -2.722,1.472 -3.71,3.236c-2.49,4.453 -2.39,10.326 -2.895,15.262c-0.674,6.582 -2.016,11.992 -6.554,17.08c-4.845,5.433 -11.627,9 -18.21,11.867c-5.76,2.508 -12.074,3.656 -17.748,6.198c-5.553,2.49 -7.215,9.568 -10.745,14.096c-6.496,8.334 -14.76,7.693 -23.63,6.394c-2.05,0.97 -4.54,0.902 -6.672,-0.995c-3.11,-0.656 -5.713,-2.753 -5.677,-6.32c0.007,-0.59 0.115,-1.2 0.307,-1.8c-2.93,-7.325 -2.9,-16.136 -2.928,-23.68c-0.02,-5.69 0.25,-11.467 -0.376,-17.135c-0.21,-1.89 -0.53,-3.828 -1.23,-5.612c0.03,0.083 -0.65,-1.116 -0.604,-1.043c-0.022,-0.038 -0.24,-0.11 -0.263,-0.127c-1.503,-0.305 -3.04,-0.26 -4.41,0.137c-0.454,0.13 -1.017,0.635 -1.248,1.08c-1.192,2.295 -1.36,5.833 -1.395,9.25c-0.096,8.815 1.16,18.356 -2.705,26.603c-3.648,7.786 -13.95,13.4 -22.423,10.588c-8.644,-2.87 -11.257,-13.03 -12.337,-21.018c-1.054,-7.805 -0.88,-15.61 -0.78,-23.462c0.053,-4.227 1.24,-11.842 -2.424,-14.883c-4.217,-3.496 -10.05,-0.584 -11.51,4.032c-2.772,8.768 0.305,18.79 -1.407,27.84c-2.13,11.272 -11.264,16.312 -22.09,16.73c-2.494,0.097 -4.232,-1 -5.227,-2.585c-0.494,-0.43 -0.95,-0.96 -1.346,-1.61c-5.07,-8.315 -6.094,-18.596 -6.707,-28.11c-0.524,-8.155 -0.91,-16.45 -0.545,-24.62c0.26,-5.8 1.59,-13.56 -1.166,-18.965c-2.173,-4.262 -8.85,-3.352 -11.86,-1.184c-0.15,0.11 -0.34,0.293 -0.547,0.515c0.4,9.562 0.435,19.13 0.435,28.7c0,2.182 -0.89,3.785 -2.2,4.822c0.796,8.213 1.11,16.967 -2.84,24.028c-4.73,8.453 -17.382,12.55 -24.457,4.616c-6.186,-6.936 -6.1,-18.9 -7.222,-27.13c-0.343,-2.536 -0.74,-5.075 -1.326,-7.57c-0.215,-0.91 -0.46,-1.81 -0.728,-2.706c-0.157,-0.524 -0.33,-1.05 -0.536,-1.558l-0.005,-0.01c-0.05,-0.1 -0.117,-0.238 -0.21,-0.434c-0.606,-1.262 -0.662,-1.22 -0.857,-1.445c-0.132,-0.152 -0.293,-0.31 -0.46,-0.46c-0.126,-0.028 -0.352,-0.02 -0.524,-0.012c-0.49,0.027 -0.376,-0.31 -1.294,0.363c-2.538,1.862 -3.788,5.704 -5.382,8.312c-1.945,3.182 -4.302,6.27 -7.55,8.222c-3.447,2.074 -7.54,3.124 -11.39,4.162c-2.13,0.573 -4.978,0.926 -6.482,2.724c-3.49,4.168 -1.148,13.862 -1.168,18.832c-0.03,6.93 -1.2,14.324 -6.53,19.262c-5.938,5.5 -16.182,7.157 -23.494,3.732c-7.64,-3.578 -10.548,-11.5 -11.516,-19.34c-0.233,-1.893 0.78,-3.654 2.26,-4.858c-1.888,-3.622 -3.938,-7.12 -6.853,-10.03c-1.216,-1.212 -1.785,-2.564 -1.882,-3.893c-2.376,0.334 -4.685,0.864 -6.6,1.19c-0.584,1.727 -1.928,3.206 -4.192,3.866c-9.357,2.73 -22.38,-0.34 -27.742,-8.953c-0.93,-1.497 -1.16,-2.964 -0.913,-4.285c-1.784,-2.79 -2.954,-5.895 -4.885,-8.576c-3.68,-5.102 -9.75,-0.38 -11.02,4.085c-3.908,13.734 1.54,28.508 -1.55,42.44c-1.78,8.02 -6.966,14.826 -15.214,16.8c-6.68,1.6 -12.91,-1.065 -15.925,-7.296c-2.886,-5.963 -2.69,-12.87 -3.37,-19.316c-0.287,-2.72 -0.24,-3.645 -1.95,-5.387c-2.6,-2.653 -6.734,-3.97 -9.945,-5.7c-9.326,-5.03 -15.03,-13.47 -15.936,-24.1c-0.385,-4.475 0.295,-8.657 0.792,-13.057c-0.5,0.173 -0.95,0.334 -1.126,0.43c-6.42,3.436 -11.11,9.27 -10.845,16.215c0.37,9.714 4.39,18.916 4.448,28.707c0.05,8.344 -2.956,17.563 -11.89,20.018c-9.147,2.512 -18.24,-1.863 -23.917,-8.973c-5.14,-6.433 -8.844,-14.786 -9.116,-23.068c-0.13,-3.906 0.01,-7.818 -0.098,-11.725c-0.018,-0.657 -0.403,-3.643 -0.65,-5.8c-0.19,0.136 -0.243,0.156 -0.01,-0.078l-0.007,-0.063c-1.09,0.882 -2.37,1.6 -3.405,2.59c-2.013,1.92 -4.685,4.416 -5.694,7.1c-1.182,3.146 -0.465,8.036 -0.1,11.352c0.49,4.446 1.402,8.842 2.096,13.26c1.397,8.88 -4.072,14.37 -8.015,22.8c-3.13,6.69 -2.992,16.322 -10.774,14.662c-12.73,-2.714 -20.44,-20.082 -23.785,-31.215c-2.57,-8.556 -1.363,-17.442 -0.695,-26.18c0.322,-4.23 2.18,-21.374 -6.685,-16.07c-2.373,1.42 -3.78,3.837 -4.962,6.506c-0.44,1.206 -0.94,2.394 -1.478,3.565c-0.846,2.074 -1.75,4.1 -3.005,5.78c-0.216,0.38 -0.433,0.764 -0.653,1.14c-0.605,1.03 -1.463,1.554 -2.367,1.703c-6.63,4.51 -16.39,2.554 -22.284,-2.457c-6.655,-5.66 -7.823,-14.295 -8.722,-22.48c-0.36,-3.275 -0.5,-7.312 -3.876,-9.017c-2.736,-1.383 -4.733,0.048 -6.313,2.41c-0.235,0.352 -0.435,1.248 -0.52,3.117c-0.115,2.473 -0.085,4.944 -0.01,7.418c0.17,5.66 0.597,11.34 0.29,17.006c-0.606,11.204 -6,23.215 -19.457,19.075c-4.886,-1.5 -8.395,-4.393 -11.883,-7.48c-0.287,-0.24 -0.568,-0.486 -0.843,-0.746c-1.718,-1.53 -3.46,-3.085 -5.38,-4.522c-7.27,-5.434 -11.9,2.46 -12.127,9.07c-0.29,8.505 0.977,17.035 2.242,25.41c1.296,8.596 -5.948,8.274 -7.894,16.067c-2.826,11.321 -15.668,15.118 -25.626,9.676l0,217.165c0,7.605 5.694,13.83 12.65,13.83c6.958,0 12.65,-6.225 12.65,-13.83l0,-126.34c0,-7.606 5.694,-13.828 12.65,-13.828s12.648,6.222 12.648,13.83l0,70.49c0,7.604 5.694,13.828 12.65,13.828c6.958,0 12.65,-6.224 12.65,-13.83l0,-124.685c0,-7.606 5.692,-13.83 12.65,-13.83c6.957,0 12.648,6.224 12.648,13.83l0,68.68c0,7.608 5.692,13.83 12.65,13.83c6.957,0 12.65,-6.222 12.65,-13.83l0,-45.515c0,-7.606 5.693,-13.83 12.65,-13.83c6.958,0 12.65,6.224 12.65,13.83l0,84.938c0,7.605 -5.692,13.83 -12.65,13.83c-6.957,0 -12.65,-3.483 -12.65,-7.734c0,-4.258 -5.692,-7.74 -12.648,-7.74c-6.96,0 -12.65,6.225 -12.65,13.83l0,4.395c0,7.605 5.69,13.83 12.65,13.83c6.956,0 12.648,6.222 12.648,13.83l0,16.382c0,7.61 5.693,13.83 12.65,13.83c6.958,0 12.65,-3.874 12.65,-8.61c0,-4.732 5.692,-8.608 12.65,-8.608c6.956,0 12.648,-6.225 12.648,-13.83l0,-15.75c0,-7.604 5.692,-13.83 12.65,-13.83s12.65,5.977 12.65,13.28c0,7.305 5.692,13.278 12.648,13.278c6.958,0 12.65,-6.223 12.65,-13.83l0,-63.62c0,-7.607 5.692,-13.83 12.648,-13.83c6.958,0 12.65,6.223 12.65,13.83l0,73.932c0,7.605 5.693,13.83 12.65,13.83c6.96,0 12.65,-6.225 12.65,-13.83l0,-53.486c0,-7.61 5.693,-13.834 12.65,-13.834c6.96,0 12.65,6.225 12.65,13.834l0.002,29.047c0,7.606 5.692,13.83 12.648,13.83c6.957,0 12.65,-6.224 12.65,-13.83l0,-47.5c0,-7.607 5.692,-13.83 12.648,-13.83c6.957,0 12.65,3.31 12.65,7.35c0,4.047 5.692,7.355 12.65,7.355c6.957,0 12.65,-6.224 12.65,-13.83l0,-24.45c0,-7.608 5.69,-13.832 12.647,-13.832c6.96,0 12.65,6.224 12.65,13.83l0,34.962c0,7.605 5.692,13.83 12.65,13.83c6.96,0 12.65,-6.225 12.65,-13.83l0,-32.18c0,-7.605 5.692,-13.83 12.65,-13.83c6.957,0 12.65,6.225 12.65,13.83l0,73.95c0,7.604 5.692,13.83 12.65,13.83c6.956,0 12.65,-6.226 12.65,-13.83l0,-46.564c0,-7.604 5.692,-13.828 12.647,-13.828c6.957,0 12.65,6.224 12.65,13.83l0,63.98c0,7.604 5.69,13.827 12.648,13.827c6.958,0 12.654,-6.225 12.654,-13.83l0,-106.149c0,-7.605 5.69,-13.83 12.644,-13.83c6.958,0 12.652,6.225 12.652,13.83l0,88.083c0,7.607 5.692,13.83 12.65,13.83c6.957,0 12.65,-6.223 12.65,-13.83l0,-25.937c0,-7.607 5.692,-13.83 12.65,-13.83c6.957,0 12.65,6.223 12.65,13.83l0,65.745c0,7.607 5.69,13.83 12.65,13.83c6.957,0 12.65,-6.223 12.65,-13.83l0,-43.415c0,-7.605 5.69,-13.828 12.648,-13.828c6.957,0 12.65,6.223 12.65,13.828l0,57.022c0,7.607 5.69,13.83 12.648,13.83c6.958,0 12.65,-6.223 12.65,-13.83l0,-120.27c0,-7.608 5.692,-13.83 12.65,-13.83c6.956,0 12.646,6.222 12.646,13.83l0,38.402c0,7.605 5.695,13.83 12.652,13.83c6.957,0 12.65,6.222 12.65,13.83l0,9.62c0,7.606 -5.692,13.83 -12.65,13.83c-6.957,0 -12.652,6.226 -12.652,13.83l0,13.306c0,7.605 5.695,13.828 12.652,13.828c6.957,0 12.65,-6.122 12.65,-13.603c0,-7.48 5.693,-13.602 12.65,-13.602c6.956,0 12.65,-6.222 12.65,-13.827l-0.002,-20.125c0,-7.607 5.695,-13.832 12.65,-13.832c6.958,0 12.65,-6.224 12.65,-13.83l0,-11.575c0,-7.607 5.694,-13.83 12.646,-13.83c6.958,0 12.65,6.223 12.65,13.83l0,29.47c0,7.606 5.692,13.83 12.65,13.83c6.96,0 12.652,6.225 12.652,13.83l0,24.576c0,7.607 -5.693,13.83 -12.652,13.83c-6.957,0 -12.65,5.375 -12.65,11.948s5.692,11.95 12.65,11.95c6.96,0 12.652,3.257 12.652,7.24c0,3.982 5.692,7.24 12.65,7.24c6.957,0 12.65,-6.225 12.65,-13.83l0,-76.744c0,-7.606 5.692,-13.828 12.65,-13.828c6.957,0 12.65,-6.226 12.65,-13.832l0,-37.683c0,-7.607 5.692,-13.83 12.65,-13.83c6.954,0 12.648,6.223 12.648,13.83l0,108.34c0,7.607 5.693,13.83 12.647,13.83c6.962,0 12.653,-6.223 12.653,-13.83l0,-114.403c0,-7.605 5.692,-13.83 12.65,-13.83c6.957,0 12.65,6.225 12.65,13.83l-0.002,34.902c0,7.61 5.693,13.832 12.65,13.832c5.56,0 10.3,-3.977 11.985,-9.454l0,-119.024c-3.274,-3.337 -7.197,-5.962 -9.472,-10.214l-0.002,0l-0.001,-0.001zm-774.133,116.214c0,7.605 -5.694,13.83 -12.65,13.83c-6.96,0 -12.65,-6.225 -12.65,-13.83l0,-25.073c0,-7.607 5.69,-13.83 12.65,-13.83c6.957,0 12.65,6.223 12.65,13.83l0,25.073zm1431.909,-126.477c0,7.605 -5.693,13.83 -12.65,13.83c-6.957,0 -12.65,-6.225 -12.65,-13.83l0,90.988c0,-7.607 5.692,-13.83 12.65,-13.83c6.957,0 12.65,6.223 12.65,13.83l0,25.227l0,-116.215z"
         fill="#4db6ac" />
      <path
         id="svg_8"
         d="m468.032,243.457c-6.958,0 -12.653,6.224 -12.653,13.83l0,11.9c0,7.606 5.693,13.828 12.65,13.828c6.96,0 12.65,-6.222 12.65,-13.83l0,-11.9c0,-7.604 -5.69,-13.828 -12.65,-13.828m126.5,25.736c-6.96,0 -12.65,6.225 -12.65,13.83l0,22.545c0,7.605 5.69,13.83 12.65,13.83c6.957,0 12.65,-6.225 12.65,-13.83l0,-22.546c0,-7.604 -5.693,-13.83 -12.65,-13.83m151.793,-13.822c-6.958,0 -12.65,6.223 -12.65,13.823c0,7.602 5.692,13.822 12.65,13.822s12.647,-6.22 12.647,-13.822c0,-7.6 -5.69,-13.822 -12.647,-13.822m101.195,-21.408c-6.958,0 -12.65,6.224 -12.65,13.83l0,40.045c0,7.606 5.692,13.832 12.65,13.832s12.65,-6.228 12.65,-13.834l0,-40.046c0,-7.604 -5.692,-13.828 -12.65,-13.828m63.25,21.275c0,7.5 5.692,13.634 12.647,13.634l12.65,0l0,-27.271l-12.65,0c-6.955,0 -12.647,6.137 -12.647,13.637m63.246,-153.97c-6.958,0 -12.65,-6.225 -12.65,-13.83l0,-51.717c0,-7.607 -5.69,-13.83 -12.648,-13.83c-6.958,0 -12.65,6.223 -12.65,13.83l0,42.214c0,7.605 -5.693,13.83 -12.65,13.83c-6.958,0 -12.648,-6.225 -12.648,-13.83l0,-7.722c0,-7.605 -5.695,-13.83 -12.652,-13.83c-6.958,0 -12.65,6.225 -12.65,13.83l0,31.67c0,7.608 -5.693,13.83 -12.65,13.83c-6.958,0 -12.65,-6.222 -12.65,-13.83l0,-19.64c0,-7.605 -5.69,-13.83 -12.65,-13.83c-6.956,0 -12.65,5.92 -12.65,13.156c0,7.235 -5.69,13.154 -12.65,13.154c-6.955,0 -12.646,-6.224 -12.646,-13.83l0,-34.65c0,-7.608 -5.693,-13.832 -12.65,-13.832c-6.96,0 -12.652,6.224 -12.652,13.83l0,35.606c0,7.605 -5.69,13.828 -12.647,13.828c-6.956,0 -12.65,2.665 -12.65,5.92c0,3.257 -5.69,5.92 -12.647,5.92s-12.65,-6.223 -12.65,-13.828l0,-18.636c0,-7.608 -5.692,-13.83 -12.65,-13.83c-6.957,0 -12.65,-6.225 -12.65,-13.832l0,-11.668c0,-7.607 -5.69,-13.83 -12.648,-13.83c-6.957,0 -12.65,6.223 -12.65,13.83l0,22.117c0,7.607 -5.69,13.83 -12.648,13.83c-6.958,0 -12.65,2.594 -12.65,5.763c0,3.17 -5.692,5.763 -12.648,5.763c-6.96,0 -12.65,4.89 -12.65,10.866s-5.694,10.87 -12.653,10.87c-6.958,0 -12.65,-6.228 -12.65,-13.833l0,-33.903c0,-7.605 -5.69,-13.83 -12.648,-13.83c-6.957,0 -12.65,6.225 -12.65,13.83l0,21.68c0,7.607 -5.69,13.83 -12.65,13.83c-6.957,0 -12.652,-6.223 -12.652,-13.83l0,-33.565c0,-7.605 -5.69,-13.83 -12.65,-13.83c-6.955,0 -12.648,6.225 -12.648,13.83l0,19.962c0,7.606 -5.693,13.83 -12.65,13.83c-6.958,0 -12.652,-6.224 -12.652,-13.83l0,-51.073c0,-7.602 -5.683,-13.824 -12.635,-13.83l-0.024,0c-6.95,0.006 -12.64,6.228 -12.64,13.83l0,42.548c0,7.606 -5.69,13.828 -12.65,13.828c-6.956,0 -12.65,-6.222 -12.65,-13.828l0,-17.18c0,-7.607 -5.69,-13.83 -12.648,-13.83c-6.956,0 -12.65,4.66 -12.65,10.36c0,5.697 -5.69,10.36 -12.65,10.36c-6.956,0 -12.65,6.224 -12.65,13.83l0,18.588c0,7.606 -5.69,13.83 -12.65,13.83c-6.956,0 -12.65,-6.224 -12.65,-13.83l0,-13.59c0,-7.608 -5.69,-13.83 -12.65,-13.83c-6.955,0 -12.65,2.197 -12.65,4.88c0,2.686 -5.69,4.885 -12.645,4.885c-6.958,0 -12.65,-6.225 -12.65,-13.832l0,-0.586c0,-7.607 -5.693,-13.83 -12.65,-13.83c-6.958,0 -12.65,6.223 -12.65,13.83l0,36.75c0,7.606 -5.693,13.83 -12.65,13.83c-6.958,0 -12.65,-6.224 -12.65,-13.83l0,-7.02c0,-7.607 -5.692,-13.83 -12.65,-13.83c-6.955,0 -12.65,-6.224 -12.65,-13.83l0,-13.52c0,-7.608 -5.692,-13.83 -12.646,-13.83c-6.955,0 -12.65,6.222 -12.65,13.83l0,37.485c0,7.605 -5.69,13.83 -12.65,13.83c-6.954,0 -12.647,-6.225 -12.647,-13.83l0,-21.005c0,-7.606 -5.693,-13.83 -12.65,-13.83c-6.957,0 -12.65,6.224 -12.65,13.83l0,42.204c0,7.605 -5.693,13.83 -12.647,13.83c-6.958,0 -12.65,-6.225 -12.65,-13.83l0,-47.564c0,-7.606 -5.693,-13.83 -12.65,-13.83c-6.958,0 -12.65,6.216 -12.65,13.812c0,7.6 -5.695,13.814 -12.652,13.814c-6.956,0 -12.648,-6.224 -12.648,-13.83l0,-10.716c0,-7.607 -5.693,-13.83 -12.65,-13.83c-6.958,0 -12.65,6.223 -12.65,13.83l0,21.026c0,7.606 -5.69,13.828 -12.65,13.828c-6.955,0 -12.648,-3.923 -12.648,-8.717c0,-4.794 -5.693,-8.716 -12.65,-8.716c-6.957,0 -12.648,6.225 -12.648,13.83l0,44.534c0,7.607 -5.694,13.83 -12.65,13.83s-12.648,-6.225 -12.648,-13.831l0,116.126c0,7.606 5.694,13.83 12.65,13.83s12.65,-6.224 12.65,-13.83l0,-105.364c0,-7.607 5.69,-13.83 12.646,-13.83c6.958,0 12.65,6.223 12.65,13.83l0,15.006c0,7.606 5.694,13.83 12.65,13.83c6.96,0 12.65,-6.224 12.65,-13.83l0,-7.918c0,-7.605 5.69,-13.83 12.65,-13.83c6.956,0 12.65,6.225 12.65,13.83l0,53.127c0,7.608 5.69,13.83 12.647,13.83s12.65,-6.222 12.65,-13.83l0,-49.681c0,-7.604 5.694,-13.83 12.652,-13.83c6.957,0 12.65,6.226 12.65,13.83l0,65.813c0,7.607 5.692,13.83 12.65,13.83c6.954,0 12.647,-6.223 12.647,-13.83l0,-88.37c0,-7.604 5.693,-13.828 12.65,-13.828c6.957,0 12.65,6.224 12.65,13.83l0,44.41c0,7.606 5.693,13.83 12.65,13.83c6.957,0 12.648,-6.224 12.648,-13.83l0,-6.766c0,-7.607 5.694,-13.83 12.65,-13.83c6.955,0 12.65,5.162 12.65,11.473c0,6.31 5.692,11.475 12.65,11.475c6.955,0 12.65,6.223 12.65,13.83l0,10.363c0,7.607 5.69,13.83 12.648,13.83c6.957,0 12.65,6.224 12.65,13.83l0,16.083c0,7.605 5.692,13.83 12.65,13.83c6.957,0 12.65,-6.225 12.65,-13.83l0,-22.453c0,-7.606 -5.693,-13.83 -12.65,-13.83c-6.958,0 -12.65,-6.224 -12.65,-13.83l0,-41.1c0,-7.607 5.692,-13.83 12.65,-13.83c6.957,0 12.65,-5.998 12.65,-13.328c0,-7.33 5.692,-13.327 12.65,-13.327c6.956,0 12.645,6.223 12.645,13.828l0,50.74c0,7.604 5.695,13.828 12.65,13.828c6.96,0 12.65,-6.222 12.65,-13.827l0,-17.774c0,-7.608 5.694,-13.83 12.65,-13.83c6.96,0 12.65,6.222 12.65,13.83l0,3.782c0,7.606 5.694,13.83 12.65,13.83c6.96,0 12.65,-6.224 12.65,-13.83l0,-13.662c0,-7.607 5.694,-13.83 12.65,-13.83s12.647,6.223 12.647,13.83l0,8.344c0,7.605 5.695,13.83 12.653,13.83c6.957,0 12.65,-6.225 12.65,-13.83l0,-29.94c0,-7.607 5.692,-13.83 12.648,-13.83c6.96,0 12.65,6.223 12.65,13.83l0,38.932c0,7.605 5.693,13.83 12.652,13.83c6.957,0 12.65,-6.225 12.65,-13.83l0,-17.946c0,-7.607 5.693,-13.83 12.65,-13.83c6.957,0 12.648,6.223 12.648,13.83l0,43.888c0,7.605 5.694,13.83 12.65,13.83c6.96,0 12.65,-6.225 12.65,-13.83l0,-10.228c0,-7.604 5.694,-13.828 12.65,-13.828c6.957,0 12.65,6.224 12.65,13.83l0,25.414c0,7.607 5.69,13.83 12.648,13.83c6.96,0 12.65,-6.223 12.65,-13.83l0,-3.326c0,-7.606 5.692,-13.83 12.652,-13.83c6.956,0 12.647,-4.305 12.647,-9.57c0,-5.262 5.693,-9.57 12.65,-9.57c6.96,0 12.648,-6.223 12.648,-13.828l0,-5.35c0,-7.607 5.694,-13.83 12.65,-13.83c6.96,0 12.65,6.223 12.65,13.83l0,51.996c0,7.607 5.692,13.83 12.65,13.83c6.957,0 12.65,-6.223 12.65,-13.83l0,-42.814c0,-7.606 5.692,-13.828 12.65,-13.828c6.957,0 12.647,6.222 12.647,13.828l0,59.44c0,7.606 5.693,13.832 12.65,13.832c6.957,0 12.648,-6.226 12.648,-13.83l0,-69.616c0,-7.605 5.693,-13.83 12.65,-13.83c6.96,0 12.652,6.225 12.652,13.83l0,25.48c0,7.606 5.69,13.83 12.647,13.83s12.65,-5.522 12.65,-12.273c0,-6.75 5.692,-12.273 12.65,-12.273c6.957,0 12.65,6.224 12.65,13.83l0,56.092c0,7.607 5.69,13.833 12.65,13.833c6.955,0 12.647,-6.228 12.647,-13.835l0,-76.07c0,-7.608 5.693,-13.83 12.65,-13.83c6.958,0 12.653,6.222 12.653,13.83l0,31.1c0,7.604 5.69,13.828 12.648,13.828c6.957,0 12.65,-6.224 12.65,-13.83l0,-69.17c0,-7.605 5.692,-13.83 12.65,-13.83c6.957,0 12.65,6.225 12.65,13.83l0,88.403c0,7.607 5.69,13.83 12.648,13.83c5.56,0 10.302,-3.978 11.986,-9.456l0,-84.757c-1.684,-5.478 -6.426,-9.457 -11.986,-9.457"
         fill="#f44336" />
      <path
         id="svg_9"
         d="m63.247,205.056c-6.958,0 -12.65,5.94 -12.65,13.197c0,7.257 5.692,13.196 12.65,13.196s12.647,-5.94 12.647,-13.198s-5.69,-13.197 -12.647,-13.197m101.197,42.04c-6.958,0 -12.65,6.223 -12.65,13.83l0,8.26c0,7.607 5.692,13.83 12.65,13.83c6.956,0 12.65,-6.223 12.65,-13.83l0,-8.26c0,-7.607 -5.694,-13.83 -12.65,-13.83m101.196,-21.77c-6.96,0 -12.652,6.225 -12.652,13.83l0,15.887c0,7.607 5.693,13.83 12.65,13.83c6.96,0 12.652,-6.223 12.652,-13.83l0,-15.886c0,-7.606 -5.693,-13.83 -12.65,-13.83"
         fill="#f44336" />
      <path
         id="svg_10"
         d="m12.65,163.616c-6.958,0 -12.65,6.224 -12.65,13.83l0.003,2.323c0,7.604 5.69,13.83 12.648,13.83c6.958,0 12.648,-6.226 12.648,-13.83l0,-2.324c0,-7.607 -5.69,-13.83 -12.647,-13.83m126.494,-44.562c-6.958,0 -12.65,-3.936 -12.65,-8.746c0,-4.812 -5.692,-8.747 -12.65,-8.747s-12.65,6.225 -12.65,13.83l0,6.918c0,7.606 5.692,13.83 12.65,13.83s12.65,5.62 12.65,12.492c0,6.87 5.692,12.492 12.65,12.492s12.65,-6.224 12.65,-13.83l0,-14.407c0,-7.607 -5.692,-13.83 -12.65,-13.83m126.496,-13.368c-6.957,0 -12.648,5.86 -12.648,13.024c0,7.164 5.69,13.025 12.65,13.025c6.957,0 12.65,-5.86 12.65,-13.023c0,-7.162 -5.693,-13.023 -12.65,-13.023m101.192,15.522c-6.956,0 -12.65,-4.772 -12.65,-10.604c0,-5.83 -5.69,-10.6 -12.647,-10.6s-12.647,6.224 -12.647,13.83l0,13.106c0,7.606 5.69,13.83 12.647,13.83c6.956,0 12.646,6.045 12.646,13.44c0,7.39 5.695,13.436 12.65,13.436c6.96,0 12.652,-6.222 12.652,-13.83l0,-18.778c0,-7.607 -5.693,-13.83 -12.65,-13.83m75.897,34.264c-6.956,0 -12.65,6.224 -12.65,13.83l0,12.968c0,7.607 5.694,13.83 12.65,13.83s12.647,-6.223 12.647,-13.83l0,-12.967c0,-7.607 -5.693,-13.83 -12.65,-13.83m50.603,-57.124c-6.958,0 -12.65,6.224 -12.65,13.83l0,15.756c0,7.605 5.692,13.83 12.65,13.83c6.96,0 12.65,-6.225 12.65,-13.83l0,-15.76c0,-7.605 -5.69,-13.83 -12.65,-13.83m75.897,90.06c-6.96,0 -12.652,6.222 -12.652,13.83l0,7.784c0,7.605 5.693,13.83 12.65,13.83c6.96,0 12.652,-6.225 12.652,-13.83l0,-7.784c0,-7.608 -5.693,-13.83 -12.65,-13.83m75.898,-71.762c-6.96,0 -12.65,6.224 -12.65,13.83l0,1.938c0,7.607 5.69,13.83 12.65,13.83c6.956,0 12.65,-6.223 12.65,-13.83l0,-1.937c0,-7.61 -5.694,-13.833 -12.65,-13.833m75.895,19.49c-6.96,0 -12.652,6.224 -12.652,13.83l0,38.075c0,7.607 5.695,13.83 12.654,13.83c6.957,0 12.65,-6.223 12.65,-13.83l0,-38.076c0,-7.605 -5.692,-13.83 -12.65,-13.83m50.596,-8.374c-6.957,0 -12.65,6.224 -12.65,13.83l0,0.177c0,7.605 5.693,13.83 12.65,13.83c6.957,0 12.648,-6.225 12.648,-13.83l0,-0.178c0,-7.607 -5.69,-13.83 -12.647,-13.83"
         fill="#FEFEFE" />
    </g>
  </g>
</svg>
