<?xml version="1.0" standalone="no"?>
<!DOCTYPE svg PUBLIC "-//W3C//DTD SVG 20010904//EN"
 "http://www.w3.org/TR/2001/REC-SVG-20010904/DTD/svg10.dtd">
<svg version="1.0" xmlns="http://www.w3.org/2000/svg"
 width="260.000000pt" height="260.000000pt" viewBox="0 0 260.000000 260.000000"
 preserveAspectRatio="xMidYMid meet">
<metadata>
Created by potrace 1.11, written by Peter Selinger 2001-2013
</metadata>
<g transform="translate(0.000000,260.000000) scale(0.100000,-0.100000)"
fill="#000000" stroke="none">
<path d="M0 1300 l0 -1300 1300 0 1300 0 0 1300 0 1300 -1300 0 -1300 0 0
-1300z m432 235 l3 -325 194 170 194 170 78 0 c44 0 79 -2 79 -4 0 -3 -93 -87
-207 -187 l-206 -183 219 -212 219 -213 -85 0 -85 0 -202 195 -203 196 0 -196
0 -196 -65 0 -65 0 0 555 0 555 65 0 65 0 2 -325z m848 114 l0 -211 56 51
c151 138 392 94 459 -85 17 -43 19 -87 23 -351 l3 -303 -65 0 -66 0 0 268 c0
296 -7 347 -57 394 -94 90 -258 51 -326 -76 -21 -39 -22 -55 -25 -313 l-3
-273 -65 0 -64 0 0 555 0 555 65 0 65 0 0 -211z m1030 -77 c0 -132 -3 -294 -7
-360 l-6 -122 -57 0 -57 0 -6 128 c-4 70 -7 232 -7 360 l0 232 70 0 70 0 0
-238z m0 -732 l0 -90 -70 0 -70 0 0 90 0 90 70 0 70 0 0 -90z"/>
</g>
</svg>
